<?xml version="1.0" standalone="no"?><!DOCTYPE svg PUBLIC "-//W3C//DTD SVG 1.1//EN" "http://www.w3.org/Graphics/SVG/1.1/DTD/svg11.dtd"><svg t="1671274163727" class="icon" viewBox="0 0 1032 1024" version="1.1" xmlns="http://www.w3.org/2000/svg" p-id="2661" xmlns:xlink="http://www.w3.org/1999/xlink" width="201.5625" height="200"><path d="M134.026365 293.122411q62.6742 108.956685 89.672316 220.806026l-85.815443 0q-31.819209-127.276836-89.672316-220.806026l85.815443 0zM16.391714 1019.178908q107.992467-205.378531 131.13371-455.111111l76.173258 0q-17.355932 250.696798-107.992467 455.111111l-99.314501 0zM129.205273 242.983051q-31.819209-126.312618-90.636535-220.806026l85.815443 0q58.817326 98.350282 90.636535 220.806026l-85.815443 0zM828.263653 766.553672q4.821092 122.455744-121.491525 117.634652l-370.259887 0 0-243.947269 77.137476 0 0 185.129944 121.491525 0 0-243.947269-252.625235 0 0-57.853107 252.625235 0 0-149.453861-90.636535 0q-49.175141 63.638418-157.167608 104.135593l0-53.996234q117.634652-63.638418 134.990584-189.951036l85.815443 0q-6.749529 22.177024-13.499058 42.425612t-13.499058 38.568738l360.617702 0 0 58.817326-215.984934 0 0 149.453861 252.625235 0 0 57.853107-252.625235 0 0 243.947269 57.853107 0q73.280603 4.821092 68.45951-62.6742l0-122.455744 76.173258 0 0 126.312618zM539.962335 0q-14.463277 67.495292-40.497175 116.670433l532.248588 0 0 772.338983q0 134.990584-149.453861 134.990584l-94.493409 0 0-63.638418 77.137476 0q76.173258 0 76.173258-71.352166l0-708.700565-483.073446 0q-66.531073 72.316384-184.165725 112.813559l0-53.996234q144.632768-81.958569 170.666667-239.126177l95.457627 0z" p-id="2662"></path></svg>